<svg width="17" height="23" viewBox="0 0 17 23" fill="none" xmlns="http://www.w3.org/2000/svg">
<path d="M6.5486 0.0561235C6.90045 -0.0709344 7.28479 0.0351349 7.60724 0.200873C7.83254 0.352056 8.05785 0.504847 8.31016 0.603759C8.32945 0.641555 8.36958 0.716342 8.38887 0.753334C8.37883 0.778263 8.35955 0.829729 8.34952 0.854658C8.5293 1.28087 8.64427 1.78588 8.46989 2.23372C8.35106 2.3849 8.14427 2.4083 7.97683 2.46685C7.97606 2.68317 8.00924 2.89715 8.02699 3.11187C8.38501 3.17218 8.68809 2.91243 9.04226 2.93817C9.0901 2.7315 9.12791 2.52145 9.19133 2.31888C9.26463 2.45318 9.26764 2.60766 9.26849 2.75884C9.36108 2.78618 9.45522 2.81111 9.54997 2.83515C9.5509 2.87223 9.55159 2.94621 9.55159 2.9832C11.104 2.99285 12.6557 2.97588 14.2082 2.99205C14.2043 3.04737 14.1968 3.15843 14.1937 3.21399C14.2338 3.21399 14.3156 3.2148 14.3563 3.2148C14.3548 2.92056 14.3563 2.62535 14.3556 2.3311C14.3949 2.32941 14.4721 2.327 14.5107 2.3262C14.5116 2.5578 14.5123 2.7894 14.5146 3.02108C14.5485 3.0645 14.6164 3.15127 14.6505 3.1947C14.6759 3.16325 14.7268 3.10149 14.7522 3.07005C14.8702 3.18513 14.8031 3.34274 14.7979 3.48411C15.2323 3.47921 15.6712 3.50977 16.1042 3.47278C16.1366 3.44785 16.2014 3.39879 16.2338 3.37394C16.2933 3.39799 16.3534 3.42219 16.4128 3.44712C16.608 3.44214 16.804 3.44149 17 3.44069C16.996 3.54603 16.9929 3.6513 16.989 3.75673C16.7367 3.75262 16.4836 3.74708 16.2352 3.79203C16.0747 3.64816 15.8594 3.69384 15.6658 3.68837C15.3679 3.70285 15.0607 3.64816 14.7722 3.74699C14.6008 3.79685 14.4127 3.78487 14.2614 3.68347C14.225 3.77755 14.2807 3.98824 14.1286 3.98012C13.5298 3.98824 12.9318 3.97457 12.3338 3.98422C12.252 4.02926 12.1695 4.07188 12.0878 4.11361C12.0014 4.3822 11.7537 4.56145 11.5429 4.7255C11.5167 5.13804 11.6733 5.52323 11.7343 5.92363C11.6162 5.95893 11.4974 5.99528 11.3809 6.03548C11.2135 6.44722 11.3161 7.00925 10.9287 7.29649C10.6317 7.47655 10.4351 7.86817 10.0345 7.80633C10.2382 7.98325 9.9789 7.92776 10.0059 7.78623C9.28138 7.71948 8.67104 7.27639 8.04142 6.93872C8.01209 7.1236 7.96588 7.30542 7.91796 7.48636C8.15716 7.5338 8.35469 7.71715 8.39712 7.97288C8.47351 8.53024 8.32073 9.08359 8.32305 9.6424C8.34002 9.9705 8.20499 10.2712 8.03679 10.539C7.88941 10.7127 7.65716 10.5341 7.48046 10.5084C7.44026 10.5896 7.40099 10.6709 7.36241 10.7529C7.41256 10.9715 7.43417 11.1991 7.50438 11.413C7.89867 11.8674 8.25746 12.3596 8.53292 12.9024C8.81648 13.5171 9.06916 14.1468 9.28994 14.7889C9.31147 14.9136 9.42412 14.9584 9.52304 15.0036C9.53616 15.1323 9.54928 15.2608 9.56162 15.3911C9.6002 15.4498 9.63955 15.5085 9.67968 15.568C9.7036 16.361 9.61023 17.1506 9.49202 17.933C9.41888 18.2861 9.61702 18.631 9.53678 18.9865C9.54604 19.1684 9.42582 19.3059 9.36934 19.4667C9.35854 19.8423 9.34079 20.2225 9.3803 20.5974C9.40792 20.8725 9.63107 21.0493 9.7823 21.2544C9.94742 21.4371 10.0855 21.6823 10.3355 21.7473C10.5709 21.8205 10.7954 21.9266 11.0028 22.0658C11.0661 22.229 11.0545 22.4021 11.0244 22.5716C10.5723 22.6584 10.1108 22.6151 9.65406 22.6224C9.30205 22.6416 8.98817 22.4446 8.6462 22.4035C8.31518 22.3948 7.91163 22.566 7.65716 22.2572C7.76503 21.8288 7.77367 21.3686 7.97105 20.9689C8.03432 20.5162 7.9141 20.057 7.93941 19.6002C7.90176 19.5672 7.82599 19.5013 7.78818 19.4682C7.81534 19.1699 7.67406 18.9044 7.62691 18.619C7.5962 18.2022 7.55978 17.7858 7.51349 17.3709C7.47722 17.1691 7.57753 16.9842 7.7141 16.8499C7.72645 16.6167 7.7567 16.3858 7.77815 16.1543C7.74497 16.0038 7.63 15.8921 7.55592 15.7635C7.30824 15.8722 6.97414 15.8206 6.82676 15.568C6.4773 15.026 6.12846 14.484 5.77507 13.9452C5.63618 13.9356 5.48958 13.9508 5.35995 13.8929C5.21042 13.7329 5.13233 13.5198 5.0368 13.3252C4.90015 13.4853 4.91011 13.7304 4.74823 13.8761C4.40564 14.2187 4.31459 14.7221 4.13558 15.1611C3.99839 15.4457 4.07555 15.7891 3.92261 16.0666C3.84082 16.2161 3.63558 16.2459 3.58157 16.4165C3.51058 16.6005 3.42725 16.7912 3.26135 16.9031C3.08157 17.026 3.03381 17.2594 2.95364 17.4522C2.88034 17.63 2.98913 17.8165 2.96367 17.9991C2.84947 18.579 2.49531 19.0638 2.34639 19.6316C2.27849 19.8874 2.18119 20.1753 1.8957 20.2299C1.57086 20.8346 1.39192 21.5745 1.57556 22.2554C1.68822 22.4693 1.68204 22.7097 1.64732 22.9454C1.1312 22.9873 0.601803 23.0596 0.0949385 22.9093C-0.0238879 22.6639 -0.00691266 22.3752 0.0177785 22.1101C0.174336 21.4127 0.381975 20.7276 0.509212 20.0232C0.350262 19.876 0.387376 19.6509 0.390385 19.4538C0.385061 19.0863 0.62495 18.792 0.791616 18.4905C0.854192 18.1809 0.824873 17.8482 0.978344 17.5641C1.15898 17.2086 1.31167 16.8243 1.5903 16.5371C1.64346 16.2838 1.82263 16.0925 1.895 15.8486C1.97216 15.6331 1.83713 15.4144 1.86429 15.1941C1.93058 14.5257 2.04716 13.8639 2.14824 13.2005C1.95696 13.034 2.01861 12.7696 1.95766 12.5451C1.98775 12.4567 2.02556 12.3723 2.07108 12.2902C2.02324 12.2444 1.97625 12.1977 1.92834 12.152C1.97463 11.9161 1.96152 11.4939 2.30874 11.5705C2.33034 10.7897 2.07031 10.0338 2.1575 9.25206C2.2038 9.30827 2.24925 9.36545 2.29562 9.42254L2.27093 9.15797C2.41599 9.07756 2.57031 9.01564 2.73234 8.98427C2.46846 8.94817 2.21152 8.8782 1.95288 8.8154C1.89038 8.64403 1.92525 8.46157 1.94825 8.28626C2.04855 7.69439 2.08559 7.09449 2.10642 6.49458C2.39886 6.38859 2.72139 6.47858 3.00688 6.33697C2.9183 5.58668 2.89593 4.80351 3.15194 4.0837C3.35796 3.47085 3.75155 2.87978 4.36567 2.66435C4.65579 2.59205 5.02076 2.51075 5.22585 2.80427C5.28217 2.75039 5.3385 2.69491 5.39483 2.64103C4.92654 1.67169 5.48595 0.255556 6.5486 0.0561235ZM10.2962 4.26029C10.1727 4.3391 10.0516 4.42925 10.1814 4.57239C10.1181 4.61171 10.0547 4.64959 9.99063 4.6857C9.89032 4.76611 9.66502 4.81187 9.69125 4.97447C9.80394 5.16306 9.90103 5.3613 9.98145 5.56706C10.2275 5.35645 10.4235 5.07322 10.5562 4.77343C10.584 4.74368 10.6404 4.68417 10.6681 4.65514C10.6557 4.51763 10.6264 4.38325 10.5747 4.25627C10.4821 4.25796 10.3888 4.25949 10.2962 4.26029Z" fill="white"/>
</svg>
